<svg fill="none" xmlns="http://www.w3.org/2000/svg" viewBox="0 0 131 71"><g clip-path="url(#a)"><path d="M46.755 66.17c3.916-.34 9.112-.519 14.627-.519 5.516 0 10.711.18 14.628.52 6.175.54 6.674 1.179 6.674 1.958 0 .78-.5 1.419-6.674 1.958-3.917.34-9.112.52-14.628.52-5.515 0-10.71-.18-14.627-.52-6.175-.54-6.675-1.179-6.675-1.958 0-.78.5-1.419 6.675-1.958Z" fill="#2C2A29"/><path d="M44.352 40.547c-1.5 1.33-1.63 3.937-.62 6.825.712 2.033 1.99 4.212 3.748 6.186 2.196 2.473 4.802 4.278 7.33 5.086 1.295.416 3.695.908 5.23-.452 2.556-2.27 1.122-8.233-3.132-13.02-4.255-4.785-10.003-6.903-12.56-4.633l.004.008Z" fill="#0FA954" stroke="#2C2A29" stroke-width="1.7"/><path d="M67.473 37.932c0-4.128 3.35-7.48 7.478-7.48a7.482 7.482 0 0 1 7.478 7.48c0 4.128-3.364 7.48-7.478 7.48s-7.478-3.352-7.478-7.48Z" fill="#fff"/><path d="M64.879 67.843H57.86c0-23.22 6.608-35.047 9.585-36.96-.65 1.558-.117.028-.593 1.555-4.203 13.484-3.789 30.726-1.974 35.405Z" fill="#0FA954" stroke="#2C2A29" stroke-width="1.5"/><path d="M90.373 21.293a9.074 9.074 0 0 1-6.226 5.67 1.902 1.902 0 0 0-1.328 1.28 1.889 1.889 0 0 0 .41 1.795 9.183 9.183 0 0 1 1.825 9.322c-1.737 4.763-7.017 7.233-11.789 5.495a9.194 9.194 0 0 1-6.05-8.823c.019-.8-.479-1.533-1.24-1.806a1.858 1.858 0 0 0-2.108.586 9.219 9.219 0 0 1-10.306 2.87 9.143 9.143 0 0 1-5.192-4.754 9.103 9.103 0 0 1-.302-7.028 9.184 9.184 0 0 1 7.397-5.964 1.846 1.846 0 0 0 1.464-1.113 1.897 1.897 0 0 0-.185-1.835 9.112 9.112 0 0 1-1.123-8.355c1.708-4.705 6.93-7.135 11.633-5.427 3.026 1.103 5.202 3.66 5.817 6.833a1.921 1.921 0 0 0 1.2 1.415 1.89 1.89 0 0 0 1.835-.313c2.508-2.04 5.817-2.596 8.842-1.493 4.704 1.708 7.134 6.93 5.426 11.635v.01Z" fill="#FFD200" stroke="#2C2A29" stroke-width="2"/><circle cx="69.594" cy="23.392" r="6.8" fill="ivory" stroke="#2C2A29" stroke-width="2"/></g><defs><clipPath id="a"><path fill="#fff" d="M0 .607h131v70H0z"/></clipPath></defs></svg>