<svg xmlns:xlink="http://www.w3.org/1999/xlink" width="48" height="45" viewBox="0 0 48 45" fill="none" xmlns="http://www.w3.org/2000/svg">
<rect width="47" height="45" transform="translate(0.0478516)" fill="none"></rect>
<path d="M10.2072 42.0061C13.5168 41.7769 17.9071 41.6555 22.5675 41.6555C27.2279 41.6555 31.6182 41.7769 34.9278 42.0061C40.1455 42.3703 40.5676 42.8018 40.5676 43.3278C40.5676 43.8537 40.1455 44.2852 34.9278 44.6494C31.6182 44.8786 27.2279 45 22.5675 45C17.9071 45 13.5168 44.8786 10.2072 44.6494C4.98952 44.2852 4.56738 43.8537 4.56738 43.3278C4.56738 42.8018 4.98952 42.3703 10.2072 42.0061Z" fill="#2C2A29"></path>
<path d="M41.9347 5.26782L33.6816 4.09558L32.1321 15.0048L40.3851 16.177L41.9347 5.26782Z" fill="#8E4E24"></path>
<path opacity="0.21" d="M39.7988 15.3738L32.9426 14.3999L34.5031 12.8037L38.7445 13.4062L39.7988 15.3738Z" fill="#2C2A29"></path>
<path opacity="0.21" d="M32.9426 14.4001L34.5031 12.8039L35.3244 7.02141L34.1706 4.91697L32.9426 14.4001Z" fill="#2C2A29"></path>
<path opacity="0.21" d="M34.1709 4.91687L41.0271 5.89071L39.4666 7.48692L35.2252 6.88448L34.1709 4.91687Z" fill="#FFFFF0"></path>
<path opacity="0.21" d="M41.0281 5.89102L39.4676 7.48723L38.6463 13.2697L39.8001 15.3742L41.0281 5.89102Z" fill="#FFFFF0"></path>
<path d="M32.3887 14.8359L33.8832 4.31457L41.68 5.42201L40.1855 15.9433L32.3887 14.8359Z" stroke="#2C2A29" stroke-width="1.5px" fill="none"></path>
<path d="M27.6792 7.13184H9.49316V42.2208H35.6416V18.512H27.6792V7.13184Z" fill="#8E4E24" stroke="#2C2A29" stroke-width="1.5px"></path>
<path d="M35.121 18.9712L26.7852 18.9712L26.7852 29.9899L35.121 29.9899L35.121 18.9712Z" fill="#8E4E24"></path>
<path opacity="0.21" d="M34.4277 29.2773L27.5027 29.2773L28.8232 27.4776L33.1072 27.4776L34.4277 29.2773Z" fill="#2C2A29"></path>
<path opacity="0.21" d="M27.5027 29.2773L28.8232 27.4776L28.8232 21.637L27.3849 19.7157L27.5027 29.2773Z" fill="#2C2A29"></path>
<path opacity="0.21" d="M27.3848 19.7157L34.3098 19.7157L32.9893 21.5155L28.7053 21.5155L27.3848 19.7157Z" fill="#FFFFF0"></path>
<path opacity="0.21" d="M34.3098 19.7157L32.9893 21.5155L32.9893 27.356L34.4276 29.2773L34.3098 19.7157Z" fill="#FFFFF0"></path>
<path d="M35.121 30.5515L26.7852 30.5515L26.7852 41.5702L35.121 41.5702L35.121 30.5515Z" fill="#8E4E24"></path>
<path opacity="0.21" d="M34.4277 40.8575L27.5027 40.8575L28.8232 39.0578L33.1072 39.0578L34.4277 40.8575Z" fill="#2C2A29"></path>
<path opacity="0.21" d="M27.5027 40.8575L28.8232 39.0578L28.8232 33.2172L27.3849 31.2959L27.5027 40.8575Z" fill="#2C2A29"></path>
<path opacity="0.21" d="M27.3848 31.2959L34.3098 31.2959L32.9893 33.0957L28.7053 33.0957L27.3848 31.2959Z" fill="#FFFFF0"></path>
<path opacity="0.21" d="M34.3098 31.2959L32.9893 33.0957L32.9893 38.9362L34.4276 40.8575L34.3098 31.2959Z" fill="#FFFFF0"></path>
<path d="M27.0116 7.99439L18.6758 7.99438L18.6758 19.0131L27.0116 19.0131L27.0116 7.99439Z" fill="#8E4E24"></path>
<path opacity="0.21" d="M26.3184 18.3004L19.3933 18.3004L20.7138 16.5006L24.9978 16.5006L26.3184 18.3004Z" fill="#2C2A29"></path>
<path opacity="0.21" d="M19.3933 18.3004L20.7139 16.5006L20.7139 10.6601L19.2755 8.73882L19.3933 18.3004Z" fill="#2C2A29"></path>
<path opacity="0.21" d="M19.2754 8.73877L26.2004 8.73877L24.8799 10.5386L20.5959 10.5386L19.2754 8.73877Z" fill="#FFFFF0"></path>
<path opacity="0.21" d="M26.2004 8.73877L24.8799 10.5386L24.8799 16.3791L26.3182 18.3004L26.2004 8.73877Z" fill="#FFFFF0"></path>
<path d="M27.0116 18.9712L18.6758 18.9712L18.6758 29.9899L27.0116 29.9899L27.0116 18.9712Z" fill="#8E4E24"></path>
<path opacity="0.21" d="M26.3184 29.2773L19.3933 29.2773L20.7138 27.4776L24.9978 27.4776L26.3184 29.2773Z" fill="#2C2A29"></path>
<path opacity="0.21" d="M19.3933 29.2773L20.7139 27.4776L20.7139 21.637L19.2755 19.7157L19.3933 29.2773Z" fill="#2C2A29"></path>
<path opacity="0.21" d="M19.2754 19.7157L26.2004 19.7157L24.8799 21.5155L20.5959 21.5155L19.2754 19.7157Z" fill="#FFFFF0"></path>
<path opacity="0.21" d="M26.2004 19.7157L24.8799 21.5155L24.8799 27.356L26.3182 29.2773L26.2004 19.7157Z" fill="#FFFFF0"></path>
<path d="M27.0116 30.5515L18.6758 30.5515L18.6758 41.5702L27.0116 41.5702L27.0116 30.5515Z" fill="#8E4E24"></path>
<path opacity="0.21" d="M26.3184 40.8575L19.3933 40.8575L20.7138 39.0578L24.9978 39.0578L26.3184 40.8575Z" fill="#2C2A29"></path>
<path opacity="0.21" d="M19.3933 40.8575L20.7139 39.0578L20.7139 33.2172L19.2755 31.2959L19.3933 40.8575Z" fill="#2C2A29"></path>
<path opacity="0.21" d="M19.2754 31.2959L26.2004 31.2959L24.8799 33.0957L20.5959 33.0957L19.2754 31.2959Z" fill="#FFFFF0"></path>
<path opacity="0.21" d="M26.2004 31.2959L24.8799 33.0957L24.8799 38.9362L26.3182 40.8575L26.2004 31.2959Z" fill="#FFFFF0"></path>
<path d="M18.9023 7.99414L10.5664 7.99414L10.5664 19.0128L18.9023 19.0128L18.9023 7.99414Z" fill="#8E4E24"></path>
<path opacity="0.21" d="M18.209 18.3003L11.2839 18.3003L12.6045 16.5005L16.8885 16.5005L18.209 18.3003Z" fill="#2C2A29"></path>
<path opacity="0.21" d="M11.284 18.3003L12.6045 16.5005L12.6045 10.66L11.1662 8.73869L11.284 18.3003Z" fill="#2C2A29"></path>
<path opacity="0.21" d="M11.166 8.73865L18.0911 8.73865L16.7705 10.5384L12.4865 10.5384L11.166 8.73865Z" fill="#FFFFF0"></path>
<path opacity="0.21" d="M18.091 8.73865L16.7705 10.5384L16.7705 16.379L18.2088 18.3002L18.091 8.73865Z" fill="#FFFFF0"></path>
<path d="M18.9023 18.9712L10.5664 18.9712L10.5664 29.9899L18.9023 29.9899L18.9023 18.9712Z" fill="#8E4E24"></path>
<path opacity="0.21" d="M18.209 29.2772L11.2839 29.2772L12.6045 27.4774L16.8885 27.4774L18.209 29.2772Z" fill="#2C2A29"></path>
<path opacity="0.21" d="M11.284 29.2772L12.6045 27.4774L12.6045 21.6369L11.1662 19.7156L11.284 29.2772Z" fill="#2C2A29"></path>
<path opacity="0.21" d="M11.166 19.7156L18.0911 19.7156L16.7705 21.5154L12.4865 21.5154L11.166 19.7156Z" fill="#FFFFF0"></path>
<path opacity="0.21" d="M18.091 19.7156L16.7705 21.5154L16.7705 27.3559L18.2088 29.2772L18.091 19.7156Z" fill="#FFFFF0"></path>
<path d="M18.9023 30.5515L10.5664 30.5515L10.5664 41.5702L18.9023 41.5702L18.9023 30.5515Z" fill="#8E4E24"></path>
<path opacity="0.21" d="M18.209 40.8577L11.2839 40.8577L12.6045 39.0579L16.8885 39.0579L18.209 40.8577Z" fill="#2C2A29"></path>
<path opacity="0.21" d="M11.284 40.8577L12.6045 39.0579L12.6045 33.2173L11.1662 31.2961L11.284 40.8577Z" fill="#2C2A29"></path>
<path opacity="0.21" d="M11.166 31.296L18.0911 31.296L16.7705 33.0958L12.4865 33.0958L11.166 31.296Z" fill="#FFFFF0"></path>
<path opacity="0.21" d="M18.091 31.296L16.7705 33.0958L16.7705 38.9363L18.2088 40.8576L18.091 31.296Z" fill="#FFFFF0"></path>
</svg>