<svg xmlns:xlink="http://www.w3.org/1999/xlink" xmlns="http://www.w3.org/2000/svg" class="mr-[1px] lg:mr-[0px] lg:ml-[1px]" width="14" height="14" viewBox="0 0 13 13" fill="none"><g clip-path="url(#clip_path_half_review_star)" fill="none"><path stroke="#FFAC00" stroke-width="0.5px" d="M9.95 11.92h-.094a.293.293 0 0 1-.075-.028l-.006-.003-3.27-1.71-.115-.061-.116.06-3.27 1.71L3 11.89a.365.365 0 0 1-.21.04h-.02c-.05 0-.11-.02-.187-.075a.417.417 0 0 1-.132-.17.438.438 0 0 1-.025-.213l.64-3.608.023-.13-.095-.093L.365 5.082a.443.443 0 0 1-.104-.188.404.404 0 0 1-.003-.198.407.407 0 0 1 .115-.169l.007-.005.006-.005a.298.298 0 0 1 .174-.078h.008l.007-.002 3.65-.53.13-.019.059-.118 1.62-3.3.003-.007A.3.3 0 0 1 6.17.32l.01-.005a.425.425 0 0 1 .21-.064c.08 0 .147.02.197.055l.007.005.008.004c.048.03.1.087.15.167l1.625 3.27.058.118.13.018 3.647.53a.463.463 0 0 1 .199.085c.055.051.097.112.121.174a.31.31 0 0 1 .004.179l-.004.01-.003.01a.443.443 0 0 1-.104.187L9.786 7.621l-.096.092.023.13.64 3.608v.001a.486.486 0 0 1-.017.227.417.417 0 0 1-.128.165.471.471 0 0 1-.258.076Z" fill="none"></path><mask id="b" width="13" height="13" x="0" y="0" maskUnits="userSpaceOnUse" style="mask-type:alpha" fill="none"><path fill="#FFAC00" d="M9.953 12.18c-.1 0-.2-.02-.29-.07l-3.27-1.71-3.27 1.71c-.11.06-.23.08-.35.07a.58.58 0 0 1-.33-.12.672.672 0 0 1-.22-.28c-.04-.11-.06-.23-.04-.35l.64-3.61-2.63-2.56a.69.69 0 0 1-.17-.3.653.653 0 0 1 0-.34.66.66 0 0 1 .2-.29c.09-.08.2-.13.32-.14l3.65-.53 1.62-3.3c.05-.11.13-.2.24-.26.1-.06.22-.1.34-.1.12 0 .24.03.34.1.1.06.18.16.24.26l1.63 3.28 3.65.53c.12.02.23.07.32.14.09.08.16.18.2.29.03.11.04.23 0 .34a.69.69 0 0 1-.17.3L9.962 7.8l.64 3.61c.02.12.01.24-.03.36-.05.11-.12.21-.22.28-.12.08-.26.12-.4.12v.01Z"></path></mask><g mask="url(#b)" fill="none"><path fill="#FFAC00" d="M0 0h6.391v12.182H0z"></path></g></g><defs><clipPath id="clip_path_half_review_star"><path fill="#fff" d="M0 0h12.79v12.19H0z"></path></clipPath></defs></svg>