<svg width="53" height="57" viewBox="0 0 53 57" fill="none" xmlns="http://www.w3.org/2000/svg">
<path d="M26.6598 55.0796C40.4179 55.0796 51.571 43.9264 51.571 30.1683C51.571 16.4102 40.4179 5.25708 26.6598 5.25708C12.9017 5.25708 1.74854 16.4102 1.74854 30.1683C1.74854 43.9264 12.9017 55.0796 26.6598 55.0796Z" fill="#2C2A29" stroke="#2C2A29" stroke-width="2" stroke-linejoin="round"/>
<path d="M26.6344 51.3938C40.3925 51.3938 51.5456 40.2406 51.5456 26.4825C51.5456 12.7244 40.3925 1.57129 26.6344 1.57129C12.8763 1.57129 1.72314 12.7244 1.72314 26.4825C1.72314 40.2406 12.8763 51.3938 26.6344 51.3938Z" fill="#FCAF01" stroke="#2C2A29" stroke-width="2" stroke-linejoin="round"/>
<g clip-path="url(#clip0_1403_8875)">
<path d="M26.2966 17.5671C29.4513 17.5671 29.8216 17.5812 31.0685 17.6374C32.2216 17.689 32.845 17.8812 33.2622 18.0452C33.8153 18.2608 34.2091 18.514 34.6216 18.9265C35.0341 19.339 35.2919 19.7327 35.5028 20.2858C35.6622 20.703 35.8591 21.3265 35.9106 22.4796C35.9669 23.7265 35.981 24.0968 35.981 27.2515C35.981 30.4062 35.9669 30.7765 35.9106 32.0233C35.8591 33.1765 35.6669 33.7999 35.5028 34.2171C35.2872 34.7702 35.0341 35.164 34.6216 35.5765C34.2091 35.989 33.8153 36.2468 33.2622 36.4577C32.845 36.6171 32.2216 36.814 31.0685 36.8655C29.8216 36.9218 29.4513 36.9358 26.2966 36.9358C23.1419 36.9358 22.7716 36.9218 21.5247 36.8655C20.3716 36.814 19.7481 36.6218 19.331 36.4577C18.7778 36.2421 18.3841 35.989 17.9716 35.5765C17.5591 35.164 17.3013 34.7702 17.0903 34.2171C16.931 33.7999 16.7341 33.1765 16.6825 32.0233C16.6263 30.7765 16.6122 30.4062 16.6122 27.2515C16.6122 24.0968 16.6263 23.7265 16.6825 22.4796C16.7341 21.3265 16.9263 20.703 17.0903 20.2858C17.306 19.7327 17.5591 19.339 17.9716 18.9265C18.3841 18.514 18.7778 18.2562 19.331 18.0452C19.7481 17.8858 20.3716 17.689 21.5247 17.6374C22.7716 17.5765 23.1419 17.5671 26.2966 17.5671ZM26.2966 15.439C23.0903 15.439 22.6872 15.453 21.4263 15.5093C20.17 15.5655 19.3122 15.7671 18.5622 16.0577C17.7841 16.3577 17.1278 16.7655 16.4716 17.4218C15.8153 18.078 15.4122 18.739 15.1075 19.5124C14.8169 20.2624 14.6153 21.1202 14.5591 22.3812C14.5028 23.6374 14.4888 24.0405 14.4888 27.2468C14.4888 30.453 14.5028 30.8562 14.5591 32.1171C14.6153 33.3733 14.8169 34.2312 15.1075 34.9858C15.4075 35.764 15.8153 36.4202 16.4716 37.0765C17.1278 37.7327 17.7888 38.1358 18.5622 38.4405C19.3122 38.7312 20.17 38.9327 21.431 38.989C22.6919 39.0452 23.0903 39.0593 26.3013 39.0593C29.5122 39.0593 29.9106 39.0452 31.1716 38.989C32.4278 38.9327 33.2856 38.7312 34.0403 38.4405C34.8185 38.1405 35.4747 37.7327 36.131 37.0765C36.7872 36.4202 37.1903 35.7593 37.495 34.9858C37.7856 34.2358 37.9872 33.378 38.0435 32.1171C38.0997 30.8562 38.1138 30.4577 38.1138 27.2468C38.1138 24.0358 38.0997 23.6374 38.0435 22.3765C37.9872 21.1202 37.7856 20.2624 37.495 19.5077C37.195 18.7296 36.7872 18.0733 36.131 17.4171C35.4747 16.7608 34.8138 16.3577 34.0403 16.053C33.2903 15.7624 32.4325 15.5608 31.1716 15.5046C29.906 15.453 29.5028 15.439 26.2966 15.439Z" fill="#2C2A29"/>
<path d="M26.2966 21.1812C22.9497 21.1812 20.231 23.8952 20.231 27.2468C20.231 30.5983 22.9497 33.3124 26.2966 33.3124C29.6435 33.3124 32.3622 30.5937 32.3622 27.2468C32.3622 23.8999 29.6435 21.1812 26.2966 21.1812ZM26.2966 31.1843C24.1216 31.1843 22.3591 29.4218 22.3591 27.2468C22.3591 25.0718 24.1216 23.3093 26.2966 23.3093C28.4716 23.3093 30.2341 25.0718 30.2341 27.2468C30.2341 29.4218 28.4716 31.1843 26.2966 31.1843Z" fill="#2C2A29"/>
<path d="M32.6017 22.3576C33.3835 22.3576 34.0173 21.7238 34.0173 20.942C34.0173 20.1602 33.3835 19.5264 32.6017 19.5264C31.8198 19.5264 31.186 20.1602 31.186 20.942C31.186 21.7238 31.8198 22.3576 32.6017 22.3576Z" fill="#2C2A29"/>
</g>
<defs>
<clipPath id="clip0_1403_8875">
<rect width="24" height="24" fill="white" transform="translate(14.2954 15.2466)"/>
</clipPath>
</defs>
</svg>
