<svg width="48" height="50" viewBox="0 0 48 50" fill="none" xmlns="http://www.w3.org/2000/svg">
<path d="M24.0927 48.6888C36.3484 48.6888 46.2836 38.7536 46.2836 26.4979C46.2836 14.2423 36.3484 4.30707 24.0927 4.30707C11.837 4.30707 1.90186 14.2423 1.90186 26.4979C1.90186 38.7536 11.837 48.6888 24.0927 48.6888Z" fill="#2C2A29" stroke="#2C2A29" stroke-width="2" stroke-linejoin="round"/>
<path d="M24.0805 45.4051C36.3362 45.4051 46.2714 35.47 46.2714 23.2143C46.2714 10.9586 36.3362 1.02344 24.0805 1.02344C11.8248 1.02344 1.88965 10.9586 1.88965 23.2143C1.88965 35.47 11.8248 45.4051 24.0805 45.4051Z" fill="#FFFFF0" stroke="#2C2A29" stroke-width="2" stroke-linejoin="round"/>
<path d="M23.9407 15.6964H16.2356L10.8149 29.7901H21.695L23.9407 15.6964ZM35.5951 15.6964H27.89L22.4693 29.7901H33.3494L35.5951 15.6964Z" fill="#2C2A29"/>
</svg>
