<svg width="131" height="71" viewBox="0 0 131 71" fill="none" xmlns="http://www.w3.org/2000/svg">
<g clip-path="url(#clip0_1782_15201)">
<path d="M55.3385 66.1706C59.2552 65.8309 64.4508 65.651 69.9662 65.651C75.4816 65.651 80.6773 65.8309 84.594 66.1706C90.7688 66.7101 91.2684 67.3496 91.2684 68.1289C91.2684 68.9083 90.7688 69.5477 84.594 70.0873C80.6773 70.427 75.4816 70.6069 69.9662 70.6069C64.4508 70.6069 59.2552 70.427 55.3385 70.0873C49.1636 69.5477 48.6641 68.9083 48.6641 68.1289C48.6641 67.3496 49.1636 66.7101 55.3385 66.1706Z" fill="#2C2A29"/>
<path d="M101.172 38.8819C98.6014 56.834 85.4946 67.4896 69.6608 67.6283C69.5575 67.6312 69.4513 67.6312 69.348 67.6312C58.3396 67.6312 48.6209 63.6232 42.7921 54.7135C33.7788 54.6162 29.8653 48.4847 29.7709 42.2234C29.6705 35.4224 31.8191 32.1252 41.9687 32.1959L45.3922 32.2018L95.4524 32.2933C98.9674 32.2933 101.671 35.4047 101.172 38.8819V38.8819Z" fill="#E93BB7"/>
<path d="M83.5434 63.5009C83.4401 63.5038 78.8036 67.0724 68.353 67.0724C57.9024 67.0724 48.7238 63.2767 42.889 54.7416C42.6677 54.4172 42.3106 54.2078 41.9181 54.193C33.3268 53.8539 29.8649 48.3329 29.7705 42.2161C29.6701 35.4151 32.1758 32.6281 40.7523 32.7579H42.0568C42.0568 32.7579 41.5285 67.6623 83.5434 63.5038V63.5009Z" fill="#BC0A9A"/>
<path d="M39.8497 39.0411C40.1921 40.1795 40.5167 44.5267 40.6732 46.8832C40.7204 47.6146 39.9649 48.1307 39.3038 47.8151C38.1764 47.2783 36.9634 46.3552 36.4823 45.5176C35.4848 43.7805 34.9594 41.5568 35.8065 39.9052C36.5856 38.3805 39.3746 37.4544 39.8497 39.0411V39.0411Z" fill="#FFFFF0" stroke="#2C2A29" stroke-width="1.5" stroke-miterlimit="10"/>
<path d="M62.7317 10.2594C62.2388 11.327 61.7371 12.4124 61.563 13.5744C61.3889 14.7364 61.5777 16.0075 62.3362 16.907C62.8763 17.5441 63.6496 17.9422 64.231 18.538C65.1488 19.4788 65.5148 20.8531 65.5 22.1685C65.4853 23.4838 65.1252 24.7668 64.7681 26.035" stroke="#2C2A29" stroke-width="1.5" stroke-linecap="round" stroke-linejoin="round"/>
<path d="M70.0803 10.2594C69.5875 11.327 69.0857 12.4124 68.9116 13.5744C68.7375 14.7364 68.9264 16.0075 69.6849 16.907C70.2249 17.5441 70.9982 17.9422 71.5796 18.538C72.4975 19.4788 72.8634 20.8531 72.8487 22.1685C72.8339 23.4838 72.4738 24.7668 72.1167 26.035" stroke="#2C2A29" stroke-width="1.5" stroke-linecap="round" stroke-linejoin="round"/>
<path d="M101.172 38.8819C98.6014 56.834 85.4946 67.4896 69.6608 67.6283C69.5575 67.6312 69.4513 67.6312 69.348 67.6312C58.3396 67.6312 48.6209 63.6232 42.7921 54.7135C33.7788 54.6162 29.8653 48.4847 29.7709 42.2234C29.6705 35.4224 31.8191 32.1252 41.9687 32.1959L45.3922 32.2018L95.4524 32.2933C98.9674 32.2933 101.671 35.4047 101.172 38.8819V38.8819Z" stroke="#2C2A29" stroke-width="1.5" stroke-linecap="round" stroke-linejoin="round"/>
</g>
<defs>
<clipPath id="clip0_1782_15201">
<rect width="131" height="70" fill="white" transform="translate(0 0.606812)"/>
</clipPath>
</defs>
</svg>
