<svg xmlns:xlink="http://www.w3.org/1999/xlink" xmlns="http://www.w3.org/2000/svg" viewBox="0 0 44.11 47.71" width="44.11"  height="47.71" >
  <path d="m27.1,2.5c2.84,0,5.6.82,8,2.4.23.14.45.3.66.46.22.16.43.33.65.52,2.76,2.28,4.57,5.49,5.1,9.05.39,2.59-.56,6.87-1.2,8.34l-.07.16c-.13.29-.27.6-.36.92-2.01,4.28-10.22,15.31-12.68,16.86l-.18.11-.16.14c-2.67,2.42-6.15,3.75-9.78,3.75-2.84,0-5.6-.83-8-2.4-.23-.14-.45-.3-.66-.46-.22-.16-.43-.33-.65-.52-5.12-4.25-6.72-11.42-3.89-17.43l.09-.2.06-.21c.84-3.05,10.25-15.79,12.92-17.47l.19-.12.16-.15c2.68-2.43,6.16-3.77,9.81-3.77M27.1,0C22.93,0,18.81,1.52,15.61,4.42,12.42,6.44,2.61,19.71,1.62,23.34c-3.27,6.95-1.5,15.39,4.56,20.42.25.21.5.41.76.6.26.19.53.38.8.55,2.87,1.89,6.12,2.8,9.35,2.8,4.15,0,8.27-1.51,11.46-4.4,3.2-2.03,12.73-15,14.05-19.01,0,0,0,0,0,0,0,0-.03.06-.07.15-.19.44-.26.59-.26.59,0,0,.16-.38.26-.59.02-.06.05-.11.08-.18.76-1.72,1.87-6.47,1.39-9.72-.6-4.03-2.64-7.84-5.98-10.6-.25-.21-.5-.41-.76-.6-.26-.19-.53-.38-.8-.55C33.58.91,30.33,0,27.1,0h0Z"></path><path d="m34.32,11.5c-2.7,1.45-7.78,4.17-9.02,8.28-.72,2.92-.52,6.43-1.94,9.5-1.81,4.3-5.92,7.03-10.31,8.1-.83.18-2.33.46-2.48.45s-.34-.05-.49-.43-.04-.45.11-.58c.16-.14,5.23-3.67,6.96-5.81,3.08-3.4,2.2-8.31,3.89-12.71.72-1.87,1.91-3.42,3.3-4.66,2.77-2.37,6.58-3.82,9.87-3.22.35.06.48.83.1,1.07h0Z"></path></svg>