<svg version="1.1" xmlns="http://www.w3.org/2000/svg" xmlns:xlink="http://www.w3.org/1999/xlink" x="0px" y="0px" viewBox="0 0 44.2 47.7" style="enable-background:new 0 0 44.2 47.7;" xml:space="preserve" width="44.2"  height="47.7" >
  <path d="M44,14.5c-0.6-4-2.6-7.8-6-10.6c-0.2-0.2-0.5-0.4-0.8-0.6S36.7,3,36.5,2.8c-6.6-4.3-15.2-3.5-20.8,1.6
  	c-3.2,2-13,15.3-14,18.9C-0.7,28.3-0.5,33.9,2,38.6c1,1.9,2.4,3.7,4.2,5.2c0.2,0.2,0.5,0.4,0.8,0.6s0.5,0.4,0.8,0.5
  	c6.6,4.3,15.1,3.5,20.8-1.6l0,0c3.2-2,13.1-15.4,14-19c0,0,0,0,0,0C44,21.2,44.5,17.8,44,14.5z M34.3,11.5L34.3,11.5
  	c-2.7,1.5-7.8,4.2-9,8.3c-0.7,2.9-0.5,6.4-1.9,9.5c-1.8,4.3-5.9,7-10.3,8.1c-0.8,0.2-2.3,0.5-2.5,0.5c-0.1,0-0.1,0-0.2,0
  	c-0.1,0-0.2-0.2-0.3-0.4c-0.2-0.4,0-0.5,0.1-0.6c0.2-0.1,5.2-3.7,7-5.8c3.1-3.4,2.2-8.3,3.9-12.7c0.7-1.9,1.9-3.4,3.3-4.7
  	c2.3-2,5.4-3.4,8.3-3.4c0.5,0,1,0,1.5,0.1C34.6,10.5,34.7,11.2,34.3,11.5z"></path></svg>