<svg width="131" height="70" fill="none" xmlns="http://www.w3.org/2000/svg"><g clip-path="url(#a)"><path d="M72.274 65.17c3.917-.34 9.112-.519 14.628-.519 5.515 0 10.71.18 14.628.52 6.174.54 6.674 1.179 6.674 1.958 0 .78-.5 1.419-6.674 1.958-3.917.34-9.113.52-14.628.52-5.516 0-10.711-.18-14.628-.52-6.175-.54-6.674-1.179-6.674-1.958 0-.78.5-1.419 6.674-1.958Z" fill="#2C2A29"/><path d="M31.649 65.17c3.917-.34 9.112-.519 14.628-.519 5.515 0 10.71.18 14.627.52 6.175.54 6.675 1.179 6.675 1.958 0 .78-.5 1.419-6.674 1.958-3.917.34-9.113.52-14.628.52-5.516 0-10.711-.18-14.628-.52-6.175-.54-6.674-1.179-6.674-1.958 0-.78.5-1.419 6.674-1.958Z" fill="#2C2A29"/><path d="M89.173 34.304c.953-8.425-7.943-16.318-19.87-17.628-11.926-1.31-22.366 4.456-23.319 12.881-.952 8.425 7.944 16.318 19.87 17.628 11.927 1.311 22.367-4.456 23.32-12.881Z" fill="#8E4E24" stroke="#2C2A29" stroke-width="1.75" stroke-linecap="round" stroke-linejoin="round"/><path d="M46.24 31.316c-.716 1.15-.321-2.165 0-3.535.283-1.201 1.68-2.1 2.053-2.767-.057.86-.029 2.146.494 3.535 1.39 3.678 5.11 4.977 7.981 6.854 2.589 1.696 5.839 4.745 8.365 10.695.839-.199 2.07-.482 3.566-.799 8.25-1.758 15.958-3.398 16.672-1.848.278.6-.383 1.938-4.956 5.251 0 0-2.296 9.812-17.741 4.717-14.592-4.816-15.672-15.184-16.434-20.751v-1.352Z" fill="#6B3C1C" style="mix-blend-mode:darken"/><path d="M55.813 29.424c1.482 1.19 2.992 2.396 4.75 3.129 1.76.732 3.84.945 5.561.123 1.223-.587 2.157-1.626 3.332-2.293 1.855-1.054 4.16-1.072 6.227-.529 2.066.544 3.94 1.616 5.795 2.67" stroke="#2C2A29" stroke-width="1.75" stroke-linecap="round" stroke-linejoin="round"/><path d="M63.074 66.927c13.16 0 23.828-2.505 23.828-5.596 0-3.09-10.668-5.596-23.828-5.596s-23.827 2.506-23.827 5.596c0 3.09 10.668 5.596 23.827 5.596Z" fill="#2C2A29"/><path d="M85.694 66.93c12.432-.797 22.041-8.563 21.461-17.345-.579-8.782-11.126-15.256-23.559-14.459-12.432.797-22.04 8.563-21.461 17.345.579 8.783 11.127 15.256 23.559 14.46Z" fill="#8E4E24" stroke="#2C2A29" stroke-width="1.75" stroke-linecap="round" stroke-linejoin="round"/><path d="M71.778 51.313c1.66.912 3.353 1.833 5.203 2.247 1.856.419 3.93.264 5.466-.837 1.092-.78 1.826-1.965 2.857-2.821 1.63-1.35 3.886-1.768 6.004-1.585 2.117.184 4.149.903 6.147 1.623" fill="#8E4E24"/><path d="M71.778 51.313c1.66.912 3.353 1.833 5.203 2.247 1.856.419 3.93.264 5.466-.837 1.092-.78 1.826-1.965 2.857-2.821 1.63-1.35 3.886-1.768 6.004-1.585 2.117.184 4.149.903 6.147 1.623" stroke="#2C2A29" stroke-width="1.75" stroke-linecap="round" stroke-linejoin="round"/><path d="M64.243 48.552c.33 1.557 1.026 3.86 2.68 6.108 6.482 8.803 23.44 10.98 33.079 3.165 1.693-1.373 4.965-4.519 6.772-10.538 0 3.16-.582 8.507-4.316 12.95-10.272 9.677-26.484 5.525-27.653 5.125-2.727 0-10.748-4.255-11.897-10.104-.534-2.732.496-5.201 1.34-6.71l-.005.004Z" fill="#6B3C1C" style="mix-blend-mode:darken"/><path d="M63.123 62.338c5.048-7.254.815-18.765-9.454-25.71-10.27-6.946-22.686-6.696-27.733.558-5.047 7.255-.814 18.766 9.455 25.711 10.269 6.946 22.685 6.696 27.732-.559Z" fill="#8E4E24" stroke="#2C2A29" stroke-width="1.75" stroke-linecap="round" stroke-linejoin="round"/><path d="M34.009 41.305c.734 1.73 1.482 3.483 2.679 4.94 1.196 1.457 2.922 2.6 4.82 2.675 1.348.051 2.664-.433 4.013-.475 2.126-.066 4.162.977 5.716 2.411 1.554 1.433 2.693 3.238 3.814 5.02" stroke="#2C2A29" stroke-width="1.75" stroke-linecap="round" stroke-linejoin="round"/><path d="M23.858 43.067c.882 2.303 2.627 6.045 6.026 9.621 6.12 6.44 18.077 12.855 27.382 8.202 1.616-.808 5.105-2.928 7.742-8.305.066 1.429.295 9.193-5.106 13.503-7.87 6.29-20.25-.714-21.814-1.598-11.307-6.396-13.796-18.993-14.23-21.423Z" fill="#6B3C1C" style="mix-blend-mode:darken"/></g><defs><clipPath id="a"><path fill="#fff" d="M0 0h131v70H0z"/></clipPath></defs></svg>