<svg xmlns="http://www.w3.org/2000/svg" xmlns:xlink="http://www.w3.org/1999/xlink" version="1.1" id="Layer_1" x="0" y="0" viewBox="0 0 132 71" style="enable-background:new 0 0 132 71" xml:space="preserve" width="150"  height="81" ><style>.st3{fill:#bc0a9a}.st4{fill:none;stroke:#2c2a29;stroke-width:1.5;stroke-linecap:round;stroke-linejoin:round}</style><defs><path id="SVGID_1_" d="M.1.6h131v70H.1z"/></defs><clipPath id="SVGID_00000114041173794556063650000006065835951316858042_"><use xlink:href="#SVGID_1_" style="overflow:visible"/></clipPath><g style="clip-path:url(#SVGID_00000114041173794556063650000006065835951316858042_)"><path d="M55.4 66.2c3.9-.3 9.1-.5 14.6-.5s10.7.2 14.6.5c6.2.5 6.7 1.2 6.7 2s-.5 1.4-6.7 2c-3.9.3-9.1.5-14.6.5s-10.7-.2-14.6-.5c-6.2-.5-6.7-1.2-6.7-2 .1-.9.6-1.5 6.7-2z" style="fill:#2c2a29"/><path d="m95.5 32.3-50.1-.1H42c-10.1-.1-12.3 3.2-12.2 10 .1 6.3 4 12.4 13 12.5 5.8 8.9 15.5 12.9 26.6 12.9h.3c15.8-.1 28.9-10.8 31.5-28.7.6-3.5-2.1-6.6-5.7-6.6zM39.4 47.8c-1.1-.5-2.3-1.5-2.8-2.3-1-1.7-1.5-4-.7-5.6.8-1.5 3.6-2.5 4-.9.3 1.1.7 5.5.8 7.8.1.8-.6 1.3-1.3 1z" style="fill:#e93bb7"/><path class="st3" d="M42.1 32.8h-1.3c-8.6-.1-11.1 2.7-11 9.5.1 6.1 3.6 11.6 12.1 12 .4 0 .7.2 1 .5 5.8 8.5 15 12.3 25.5 12.3 10.4 0 15-3.5 15.2-3.6-42 4.2-41.5-30.7-41.5-30.7zm-2.7 15c-1.1-.5-2.3-1.5-2.8-2.3-1-1.7-1.5-4-.7-5.6.8-1.5 3.6-2.5 4-.9.3 1.1.7 5.5.8 7.8.1.8-.6 1.3-1.3 1zM83.6 63.5z"/><path class="st4" d="M62.8 10.3c-.5 1.1-1 2.2-1.2 3.3-.2 1.2 0 2.4.8 3.3.5.6 1.3 1 1.9 1.6.9.9 1.3 2.3 1.3 3.6 0 1.3-.4 2.6-.7 3.9M70.2 10.3c-.5 1.1-1 2.2-1.2 3.3-.2 1.2 0 2.4.8 3.3.5.6 1.3 1 1.9 1.6.9.9 1.3 2.3 1.3 3.6 0 1.3-.4 2.6-.7 3.9M101.3 38.9c-2.6 18-15.7 28.6-31.5 28.7h-.3c-11 0-20.7-4-26.6-12.9-9-.1-12.9-6.2-13-12.5-.1-6.8 2-10.1 12.2-10h3.4l50.1.1c3.5 0 6.2 3.1 5.7 6.6h0z"/><path d="M39.9 39c.3 1.1.7 5.5.8 7.8 0 .7-.7 1.2-1.4.9-1.1-.5-2.3-1.5-2.8-2.3-1-1.7-1.5-4-.7-5.6.9-1.4 3.7-2.3 4.1-.8z" style="fill:none;stroke:#2c2a29;stroke-width:2;stroke-miterlimit:10"/></g><g style="clip-path:url(#SVGID_00000114041173794556063650000006065835951316858042_)"><path class="st3" d="M136.7 31.8zM114-7.1c-.1 0-4.7 3.6-15.2 3.6S79.2-7.4 73.4-15.9c-.2-.3-.6-.5-1-.5-8.6-.3-12.1-5.9-12.1-12-.1-6.8 2.4-9.6 11-9.5h1.3C72.5-37.9 72-3 114-7.1z"/><path d="M70.3-31.6c.3 1.1.7 5.5.8 7.8 0 .7-.7 1.2-1.4.9-1.1-.5-2.3-1.5-2.8-2.3-1-1.7-1.5-4-.7-5.6.9-1.5 3.6-2.4 4.1-.8z" style="fill:ivory;stroke:#2c2a29;stroke-width:2;stroke-miterlimit:10"/><path class="st4" d="M115.9-21.5c-.5 1.1-1 2.2-1.2 3.3-.2 1.2 0 2.4.8 3.3.5.6 1.3 1 1.9 1.6.9.9 1.3 2.3 1.3 3.6 0 1.3-.4 2.6-.7 3.9M123.2-21.5c-.5 1.1-1 2.2-1.2 3.3-.2 1.2 0 2.4.8 3.3.5.6 1.3 1 1.9 1.6.9.9 1.3 2.3 1.3 3.6 0 1.3-.4 2.6-.7 3.9"/></g></svg>