<svg xmlns:xlink="http://www.w3.org/1999/xlink" xmlns="http://www.w3.org/2000/svg" width="131" height="71" fill="none"><g clip-path="url(#a)"><path fill="#2C2A29" d="M54.623 67.154c2.93-.264 6.816-.404 10.942-.404s8.012.14 10.942.404c4.62.42 4.993.918 4.993 1.524 0 .607-.374 1.105-4.993 1.525-2.93.264-6.816.404-10.942.404s-8.012-.14-10.942-.404c-4.62-.42-4.993-.918-4.993-1.525 0-.606.374-1.104 4.993-1.524Z"/><path fill="#EF7100" stroke="#2C2A29" stroke-miterlimit="10" stroke-width="1.5" d="M65.113 12.58c-12.638 0-22.879 10.393-22.879 23.219S59 68.625 65.114 68.625c6.508 0 22.878-20 22.878-32.826S77.752 12.58 65.113 12.58Zm0 32.026c-5.664 0-10.256-4.66-10.256-10.409 0-5.748 4.592-10.408 10.256-10.408 5.665 0 10.256 4.66 10.256 10.408 0 5.749-4.591 10.409-10.256 10.409Z"/><path fill="#2C2A29" d="M41.988 36.303c0 12.826 16.765 32.826 22.879 32.826 2.217 0 5.586-2.33 9.057-5.9C52.686 57.415 46.493 35.59 44.978 24.83a23.324 23.324 0 0 0-2.99 11.473Z" opacity=".3"/></g><defs><clipPath id="a"><path fill="#fff" d="M0 .607h131v70H0z"/></clipPath></defs></svg>