<svg xmlns:xlink="http://www.w3.org/1999/xlink" xmlns="http://www.w3.org/2000/svg" class="mr-[1px] lg:mr-[0px] lg:ml-[1px]" width="14" height="14" viewBox="0 0 13 13" fill="none"><g clip-path="url(#clip_path_full_review_star)" fill="none"><path fill="#FFAC00" d="M9.95 12.18c-.1 0-.2-.02-.29-.07L6.39 10.4l-3.27 1.71c-.11.06-.23.08-.35.07a.58.58 0 0 1-.33-.12.672.672 0 0 1-.22-.28c-.04-.11-.06-.23-.04-.35l.64-3.61L.19 5.26a.69.69 0 0 1-.17-.3.653.653 0 0 1 0-.34.66.66 0 0 1 .2-.29c.09-.08.2-.13.32-.14l3.65-.53L5.81.36c.05-.11.13-.2.24-.26.1-.06.22-.1.34-.1.12 0 .24.03.34.1.1.06.18.16.24.26L8.6 3.64l3.65.53c.12.02.23.07.32.14.09.08.16.18.2.29.03.11.04.23 0 .34a.69.69 0 0 1-.17.3L9.96 7.8l.64 3.61c.02.12.01.24-.03.36-.05.11-.12.21-.22.28-.12.08-.26.12-.4.12v.01Z"></path></g><defs><clipPath id="clip_path_full_review_star"><path fill="#fff" d="M0 0h12.79v12.19H0z"></path></clipPath></defs></svg>