<svg width="131" height="70" viewBox="0 0 131 70" fill="none" xmlns="http://www.w3.org/2000/svg">
<g clip-path="url(#clip0_1782_15049)">
<path d="M122.119 46.9738C120.827 45.404 118.939 44.4502 116.793 44.2515V44.2118H116.773C116.396 31.8917 106.262 21.976 93.862 21.976C87.6623 21.976 82.0189 24.4599 77.8857 28.4739L77.8658 28.454L77.3889 28.9508C75.1037 31.3155 73.7326 33.8391 73.2756 34.7531C72.1032 34.932 68.4469 35.5281 65.506 36.7005C62.5651 35.5281 58.9088 34.932 57.7364 34.7531C57.2794 33.8391 55.9083 31.3155 53.6231 28.9508L53.1462 28.454L53.1263 28.4739C48.9733 24.4401 43.3498 21.9562 37.1301 21.9562C24.7306 21.9562 14.5963 31.8718 14.2188 44.1919H14.1989V44.2316C12.0528 44.4304 10.185 45.3842 8.87348 46.954C7.40302 48.7424 6.84663 51.0872 7.28379 53.5909C8.17799 58.6382 13.0265 62.7713 18.0738 62.7713H20.8955C22.048 62.7713 23.1608 63.1091 24.0947 63.7649C27.0356 65.7917 30.374 67.0834 33.8713 67.5801C33.9309 67.5801 33.9905 67.6 34.0501 67.6C34.3084 67.6398 34.5668 67.6596 34.8251 67.6994C34.9244 67.6994 35.0039 67.7192 35.1033 67.7192C35.3417 67.7391 35.5802 67.759 35.8385 67.7789C35.9379 67.7789 36.0174 67.7987 36.1167 67.7987C36.4545 67.8186 36.7725 67.8186 37.1103 67.8186C40.3095 67.8186 43.3498 67.1628 46.1119 65.9706C46.6881 65.7321 47.2445 65.4539 47.8009 65.1559C49.2714 65.4142 50.9803 65.593 52.8283 65.593C56.5044 65.593 60.7171 64.9572 64.7509 63.2482C65.0092 63.1489 65.2477 63.0297 65.4861 62.9303C65.7246 63.0495 65.963 63.1489 66.2214 63.2482C70.2353 64.9572 74.4679 65.593 78.144 65.593C79.992 65.593 81.7009 65.4341 83.1714 65.1559C83.7278 65.4539 84.2842 65.7123 84.8604 65.9706C87.6225 67.1628 90.6628 67.8186 93.862 67.8186C94.1998 67.8186 94.5178 67.8186 94.8556 67.7987C94.9549 67.7987 95.0344 67.7789 95.1338 67.7789C95.3722 67.759 95.6107 67.759 95.869 67.7192C95.9684 67.7192 96.0478 67.6994 96.1472 67.6994C96.4055 67.6795 96.6638 67.6398 96.9222 67.6C96.9818 67.6 97.0414 67.5801 97.101 67.5801C100.598 67.0834 103.937 65.7917 106.878 63.7649C107.831 63.1091 108.944 62.7713 110.077 62.7713H112.899C117.966 62.7713 122.794 58.658 123.688 53.5909C124.165 51.107 123.589 48.7622 122.119 46.9738ZM13.5432 52.498C13.424 51.8621 13.5233 51.3256 13.7816 50.9878C14.0598 50.6699 14.5169 50.5705 14.8944 50.5506C15.4111 52.5775 16.186 54.505 17.2392 56.2934C15.5303 55.8761 13.8611 54.2268 13.5432 52.498ZM117.449 52.498C117.151 54.2268 115.482 55.8761 113.753 56.3132C114.786 54.505 115.581 52.5775 116.098 50.5705C116.475 50.5904 116.932 50.6897 117.211 51.0077C117.469 51.3256 117.568 51.8621 117.449 52.498Z" fill="#2C2A29"/>
<path d="M108.408 65.1955C104.513 64.8577 99.3467 64.6788 93.8622 64.6788C88.3778 64.6788 83.2114 64.8577 79.3166 65.1955C73.1765 65.732 72.6797 66.3679 72.6797 67.1428C72.6797 67.9178 73.1765 68.5537 79.3166 69.0902C83.2114 69.428 88.3778 69.6069 93.8622 69.6069C99.3467 69.6069 104.513 69.428 108.408 69.0902C114.548 68.5537 115.045 67.9178 115.045 67.1428C115.045 66.3679 114.568 65.732 108.408 65.1955Z" fill="#2C2A29"/>
<path d="M22.5832 65.1955C26.478 64.8577 31.6444 64.6788 37.1288 64.6788C42.6133 64.6788 47.7797 64.8577 51.6745 65.1955C57.8146 65.732 58.3114 66.3679 58.3114 67.1428C58.3114 67.9178 57.8146 68.5537 51.6745 69.0902C47.7797 69.428 42.6133 69.6069 37.1288 69.6069C31.6444 69.6069 26.478 69.428 22.5832 69.0902C16.4431 68.5537 15.9463 67.9178 15.9463 67.1428C15.9463 66.3679 16.4431 65.732 22.5832 65.1955Z" fill="#2C2A29"/>
<path d="M121.045 47.8482C119.873 46.4175 118.124 45.6226 116.097 45.5829C116.077 45.5829 116.057 45.5829 116.037 45.5829H74.4473C74.7851 46.6361 75.0037 47.7886 75.0633 49.0603C75.1428 50.8487 74.9242 52.5378 74.3877 54.0877C74.4871 54.3063 74.6063 54.5249 74.7255 54.7633C76.4145 54.7434 77.885 54.4653 78.7593 54.2665C79.5542 54.0877 80.2497 53.73 80.4484 53.4121C80.508 53.3326 80.508 53.273 80.4881 53.1935C80.3291 52.5974 80.1503 51.7827 80.1503 51.3058C80.1503 49.7956 81.3823 48.5437 82.9124 48.5437C84.1643 48.5437 85.1976 49.4776 85.5552 50.3519C85.7539 50.8487 85.8533 51.4449 85.9129 51.9814C88.834 52.3987 91.0397 54.9024 91.0397 57.9228C91.0397 60.5855 89.0525 62.9701 87.0853 63.9636C86.6084 64.2021 86.0123 64.4405 85.3367 64.6392C87.9596 65.7719 90.8409 66.4078 93.8812 66.4078C98.2727 66.4078 102.505 65.0963 106.102 62.6124C107.294 61.7977 108.665 61.3605 110.096 61.3605H112.918C117.329 61.3605 121.562 57.7638 122.337 53.3326C122.714 51.2859 122.257 49.3186 121.045 47.8482ZM118.819 52.7563C118.342 55.4588 115.58 57.8235 112.918 57.8235H112.441C112.182 57.8235 111.944 57.6844 111.825 57.4658C111.706 57.2472 111.706 56.969 111.865 56.7504C113.295 54.6044 114.289 52.2397 114.865 49.7161C114.945 49.3981 115.223 49.1795 115.541 49.1795H115.938C116.932 49.1795 117.746 49.4975 118.263 50.1334C118.819 50.7494 119.018 51.6833 118.819 52.7563Z" fill="white"/>
<path d="M14.9741 45.5829C14.9542 45.5829 14.9343 45.5829 14.9144 45.5829C12.8876 45.6226 11.1389 46.4175 9.96655 47.8482C8.75442 49.3186 8.29738 51.266 8.67493 53.3525C9.4499 57.7837 13.6824 61.3804 18.0938 61.3804H20.9155C22.3462 61.3804 23.7372 61.8175 24.9096 62.6323C28.5063 65.1161 32.7388 66.4276 37.1303 66.4276C40.1706 66.4276 43.0519 65.7918 45.6749 64.6591C44.9992 64.4604 44.4031 64.2219 43.9262 63.9835C41.959 62.9899 39.9719 60.6054 39.9719 57.9427C39.9719 54.9223 42.1775 52.4185 45.0986 52.0012C45.1582 51.4647 45.2576 50.8686 45.4563 50.3718C45.7941 49.4975 46.8472 48.5635 48.0991 48.5635C49.6093 48.5635 50.8612 49.7956 50.8612 51.3256C50.8612 51.7827 50.6824 52.5974 50.5234 53.2134C50.5035 53.273 50.5035 53.3326 50.5631 53.432C50.7618 53.7499 51.4573 54.1076 52.2522 54.2864C53.1265 54.4851 54.597 54.7633 56.286 54.7832C56.4052 54.5646 56.5046 54.346 56.6238 54.1076C56.0873 52.5576 55.8488 50.8686 55.9482 49.0802C56.0078 47.8084 56.2264 46.6559 56.5642 45.6028H14.9741V45.5829ZM19.1669 57.4459C19.0476 57.6645 18.8092 57.8036 18.5508 57.8036H18.0739C15.4112 57.8036 12.6491 55.4389 12.1722 52.7365C11.9934 51.6833 12.1722 50.7494 12.7286 50.0936C13.2453 49.4776 14.06 49.1398 15.0535 49.1398H15.451C15.7689 49.1398 16.0471 49.3584 16.1266 49.6763C16.7028 52.1801 17.7163 54.5447 19.1271 56.7107C19.2662 56.9491 19.2861 57.2273 19.1669 57.4459Z" fill="white"/>
<path d="M106.699 1.96582C106.182 1.05175 105.308 0.376137 104.274 0.137684L104.095 0.0979428C103.062 -0.14051 101.989 0.078072 101.115 0.674204C100.26 1.29021 99.6841 2.22415 99.5648 3.27731L97.8957 17.2864C97.7566 18.4389 98.5117 19.4921 99.6245 19.7504C99.8033 19.7902 99.9623 19.81 100.141 19.81C101.075 19.81 101.949 19.2139 102.267 18.2998L106.917 4.98623C107.315 3.99267 107.215 2.87989 106.699 1.96582ZM91.8549 2.56195C90.7818 2.66131 89.8081 3.19783 89.1723 4.07216C88.5364 4.94648 88.3178 6.03939 88.5563 7.07269L90.8613 17.3063C91.0998 18.3396 92.0337 19.0748 93.067 19.0748C93.1266 19.0748 93.2061 19.0748 93.2657 19.0748H93.3452C94.4778 18.9755 95.3522 18.0614 95.4118 16.9287L95.9086 6.45668C95.9682 5.38365 95.5509 4.35035 94.7759 3.59525C93.9811 2.84015 92.908 2.4626 91.8549 2.56195ZM84.3237 3.65486C84.0257 2.64144 83.2904 1.80685 82.3366 1.36969C81.3828 0.912655 80.27 0.892787 79.3162 1.31008L79.1573 1.36969C78.1836 1.78698 77.4285 2.58183 77.0907 3.59525C76.7529 4.5888 76.8522 5.68171 77.3689 6.61565L84.2641 18.9158C84.6814 19.6511 85.4365 20.0684 86.2314 20.0684C86.5294 20.0684 86.8275 20.0087 87.1255 19.8895C88.1986 19.4325 88.7351 18.2601 88.4172 17.1473L84.3237 3.65486ZM75.9779 10.4706C75.3817 9.57644 74.4478 8.98031 73.3748 8.82134C72.3216 8.68224 71.2486 9.00018 70.4339 9.69567C69.6191 10.3912 69.1621 11.4244 69.1621 12.4975C69.1621 13.5705 69.6191 14.5839 70.4339 15.2993L78.3028 22.2144C78.7201 22.592 79.2566 22.7708 79.7931 22.7708C80.3296 22.7708 80.8463 22.592 81.2835 22.2144L81.3431 22.1747C82.1975 21.4395 82.3764 20.1677 81.7405 19.2338L75.9779 10.4706ZM115.978 10.2521C115.78 9.19889 115.164 8.28482 114.23 7.72843C113.316 7.17204 112.203 7.05282 111.17 7.37075C110.156 7.70856 109.322 8.44379 108.904 9.43734L104.751 19.0549C104.314 20.0882 104.692 21.3004 105.665 21.8965L105.725 21.9362C106.083 22.1548 106.48 22.2542 106.877 22.2542C107.553 22.2542 108.209 21.9561 108.646 21.3997L115.203 13.2128C115.899 12.3981 116.157 11.3251 115.978 10.2521ZM127.047 15.1403C127.186 14.0872 126.848 13.034 126.172 12.2392L126.053 12.1001C125.357 11.3052 124.364 10.8482 123.311 10.8283C123.291 10.8283 123.271 10.8283 123.251 10.8283C122.218 10.8283 121.224 11.2655 120.529 12.0206L110.951 22.3734C110.156 23.2279 110.136 24.5195 110.911 25.3938C111.348 25.9105 111.984 26.1688 112.62 26.1688C113.077 26.1688 113.514 26.0297 113.912 25.7714L125.497 17.7236C126.351 17.1274 126.907 16.1736 127.047 15.1403ZM130.345 23.5259C129.928 22.5324 129.093 21.7773 128.08 21.4395C127.066 21.1017 125.954 21.2209 125.02 21.7773L115.998 27.1226C115.025 27.6988 114.627 28.911 115.064 29.9443L115.084 30.0039C115.442 30.8583 116.276 31.375 117.171 31.375C117.369 31.375 117.568 31.3551 117.767 31.2955L127.881 28.5334C128.914 28.2552 129.769 27.5399 130.246 26.5662C130.743 25.6323 130.762 24.5195 130.345 23.5259Z" fill="#2C2A29"/>
<path d="M24.0542 4.98624L28.704 18.2999C29.022 19.2338 29.8963 19.8101 30.8302 19.8101C31.0091 19.8101 31.168 19.7902 31.3469 19.7504C32.4795 19.4921 33.2148 18.4191 33.0757 17.2864L31.4065 3.27733C31.2873 2.22416 30.711 1.29022 29.8566 0.674217C29.0021 0.0582139 27.9092 -0.140497 26.8759 0.0979557L26.6971 0.137697C25.6638 0.37615 24.7894 1.03189 24.2728 1.96583C23.7959 2.8799 23.6965 3.99269 24.0542 4.98624ZM36.255 3.59526C35.4801 4.33049 35.0628 5.38366 35.1224 6.4567L35.6192 16.9287C35.6788 18.0614 36.5531 18.9755 37.6858 19.0748H37.7652C37.8249 19.0748 37.9043 19.0748 37.964 19.0748C39.0171 19.0748 39.9312 18.3396 40.1696 17.3063L42.4747 7.0727C42.7131 6.01953 42.4747 4.92662 41.8587 4.07217C41.2228 3.19784 40.2491 2.66132 39.1761 2.56197C38.0832 2.46261 37.03 2.84016 36.255 3.59526ZM42.6138 17.1672C42.276 18.28 42.8324 19.4524 43.9054 19.9094C44.2035 20.0286 44.5015 20.0882 44.7996 20.0882C45.5944 20.0882 46.3694 19.671 46.7668 18.9357L53.6621 6.63553C54.1787 5.72147 54.2781 4.60869 53.9403 3.61513C53.6025 2.62158 52.8474 1.80687 51.8737 1.38957L51.7147 1.32996C50.741 0.912669 49.6481 0.93254 48.6943 1.38957C47.7405 1.84661 47.0252 2.68119 46.7072 3.67475L42.6138 17.1672ZM49.2706 19.2338C48.6546 20.1677 48.8334 21.4395 49.668 22.1747L49.7276 22.2145C50.1449 22.592 50.6814 22.7708 51.2179 22.7708C51.7545 22.7708 52.291 22.592 52.7083 22.2145L60.5772 15.2993C61.3919 14.584 61.849 13.5705 61.849 12.4975C61.849 11.4245 61.3721 10.411 60.5772 9.69568C59.7625 9.00019 58.6895 8.68225 57.6363 8.82135C56.5831 8.96045 55.6293 9.55658 55.0332 10.4707L49.2706 19.2338ZM15.7878 13.2327L22.3453 21.4196C22.7825 21.976 23.4382 22.2741 24.1138 22.2741C24.5112 22.2741 24.9087 22.1747 25.2663 21.9561L25.326 21.9164C26.2996 21.3401 26.6772 20.1081 26.24 19.0748L22.1068 9.43736C21.6895 8.4438 20.855 7.70857 19.8415 7.37077C18.8281 7.03296 17.7153 7.17205 16.7814 7.72844C15.8673 8.28483 15.2315 9.1989 15.0327 10.2521C14.834 11.3251 15.1122 12.3981 15.7878 13.2327ZM5.53437 17.7236L17.1192 25.7714C17.5166 26.0496 17.9538 26.1688 18.4108 26.1688C19.0467 26.1688 19.6826 25.9105 20.1197 25.3938C20.8748 24.5195 20.855 23.2279 20.08 22.3734L10.4823 12.0206C9.78678 11.2655 8.79323 10.8283 7.75993 10.8283C7.74006 10.8283 7.72019 10.8283 7.70032 10.8283C6.64715 10.8482 5.6536 11.3052 4.95811 12.1001L4.83888 12.2392C4.1434 13.034 3.82546 14.0872 3.96456 15.1404C4.08378 16.1736 4.66005 17.1275 5.53437 17.7236ZM0.725574 26.606C1.20248 27.5796 2.05694 28.295 3.09023 28.5732L13.2046 31.3353C13.4033 31.3949 13.602 31.4148 13.8007 31.4148C14.6949 31.4148 15.5295 30.8782 15.8872 30.0436L15.9071 29.984C16.3442 28.9507 15.9468 27.7386 14.9731 27.1623L5.95166 21.817C5.0376 21.2606 3.92482 21.1414 2.89152 21.4792C1.8781 21.817 1.04351 22.5721 0.626218 23.5657C0.248668 24.5195 0.268539 25.6323 0.725574 26.606Z" fill="#2C2A29"/>
<g opacity="0.8">
<path d="M19.1441 45.5828H14.9711C14.9513 45.5828 14.9314 45.5828 14.9115 45.5828C12.8847 45.6225 11.136 46.4173 9.96362 47.8481C8.75149 49.3185 8.29445 51.2659 8.672 53.3524C9.44697 57.7836 13.6795 61.3803 18.0909 61.3803H20.9126C22.3433 61.3803 23.7343 61.8174 24.9067 62.6321C28.5033 65.116 32.7359 66.4275 37.1274 66.4275C40.1676 66.4275 43.0489 65.7916 45.6719 64.659C44.9963 64.4603 44.4002 64.2218 43.9233 63.9834C43.506 63.7648 43.0688 63.4866 42.6515 63.1488C42.0753 63.1885 41.499 63.2283 40.9029 63.2283C30.2122 63.2283 21.2703 55.6574 19.1441 45.5828ZM19.1639 57.4458C19.0447 57.6644 18.8062 57.8035 18.5479 57.8035H18.071C15.4083 57.8035 12.6462 55.4388 12.1693 52.7363C11.9905 51.6832 12.1693 50.7492 12.7257 50.0935C13.2423 49.4775 14.0571 49.1397 15.0506 49.1397H15.448C15.766 49.1397 16.0442 49.3583 16.1237 49.6762C16.6999 52.18 17.7133 54.5446 19.1242 56.7106C19.2633 56.949 19.2831 57.2272 19.1639 57.4458Z" fill="#D1C29C"/>
</g>
<path d="M114.606 10.5104C114.487 9.85463 114.089 9.27837 113.513 8.92069C113.155 8.70211 112.738 8.58289 112.321 8.58289C112.082 8.58289 111.844 8.62263 111.605 8.70211C110.97 8.90082 110.453 9.37773 110.175 9.99373L106.022 19.6113C105.843 20.0087 106.002 20.4857 106.379 20.7042L106.439 20.744C106.816 20.9626 107.293 20.8831 107.572 20.5453L114.129 12.3584C114.546 11.8417 114.725 11.1661 114.606 10.5104Z" fill="#FFD200"/>
<path d="M103.976 1.48888L103.797 1.44914C103.618 1.4094 103.44 1.38953 103.281 1.38953C102.804 1.38953 102.347 1.52863 101.949 1.80682C101.413 2.18437 101.055 2.7805 100.976 3.43625L99.3064 17.4453C99.2468 17.8825 99.5449 18.2998 99.982 18.3992C100.419 18.4985 100.856 18.2601 100.995 17.8428L105.645 4.52916C105.864 3.91315 105.804 3.21766 105.486 2.6414C105.168 2.06514 104.612 1.64785 103.976 1.48888Z" fill="#FFD200"/>
<path d="M124.999 13.0141C124.561 12.5173 123.945 12.2192 123.29 12.2192C123.27 12.2192 123.27 12.2192 123.25 12.2192C122.594 12.2192 121.978 12.4974 121.541 12.9743L111.963 23.3272C111.665 23.6451 111.645 24.1617 111.943 24.4996C112.241 24.8374 112.738 24.897 113.096 24.6387L124.681 16.5909C125.217 16.2133 125.575 15.6172 125.654 14.9614C125.734 14.3057 125.535 13.65 125.098 13.1532L124.999 13.0141Z" fill="#FFD200"/>
<path d="M129.014 25.99C129.312 25.3938 129.332 24.6785 129.054 24.0625C128.796 23.4465 128.279 22.9695 127.643 22.7708C127.405 22.6914 127.166 22.6516 126.928 22.6516C126.51 22.6516 126.113 22.7708 125.735 22.9695L116.734 28.3347C116.356 28.5533 116.197 29.0302 116.376 29.4276L116.396 29.4873C116.575 29.8847 117.012 30.1033 117.429 29.984L127.544 27.222C128.18 27.0431 128.736 26.606 129.014 25.99Z" fill="#FFD200"/>
<path d="M87.066 17.5646L82.9925 4.05225C82.7938 3.41638 82.3566 2.89973 81.7605 2.62153C81.4425 2.48244 81.1047 2.40295 80.7669 2.40295C80.449 2.40295 80.1509 2.46257 79.8528 2.58179L79.6939 2.64141C79.0779 2.89973 78.6208 3.39651 78.4022 4.03238C78.1837 4.64838 78.2433 5.34387 78.5811 5.92013L85.4763 18.2203C85.6949 18.6177 86.1718 18.7767 86.5693 18.5979C86.9865 18.4588 87.1853 18.0017 87.066 17.5646Z" fill="#FFD200"/>
<path d="M80.369 21.1811L80.4286 21.1414C80.7665 20.8632 80.8261 20.3664 80.5876 20.0087L74.825 11.2456C74.4475 10.6892 73.8712 10.3116 73.1956 10.2123C72.5398 10.1129 71.8642 10.3116 71.3476 10.7687C70.8508 11.2058 70.5527 11.8417 70.5527 12.5173C70.5527 13.1929 70.8309 13.8288 71.3476 14.266L79.2165 21.1811C79.5345 21.4593 80.0312 21.4593 80.369 21.1811Z" fill="#FFD200"/>
<path d="M90.3054 4.88679C89.9079 5.42331 89.7688 6.1188 89.9079 6.77455L92.213 17.0081C92.3123 17.4254 92.7098 17.7235 93.1469 17.6838H93.2264C93.6636 17.644 94.0014 17.2863 94.0213 16.8492L94.518 6.37712C94.5578 5.70151 94.2994 5.06563 93.8027 4.58873C93.3655 4.17144 92.7892 3.93298 92.1931 3.93298C92.1335 3.93298 92.054 3.93298 91.9944 3.93298C91.2989 4.01247 90.7028 4.35028 90.3054 4.88679Z" fill="#FFD200"/>
<path d="M16.4034 10.5104C16.5227 9.85463 16.9201 9.27837 17.4964 8.92069C17.854 8.70211 18.2713 8.58289 18.6886 8.58289C18.9271 8.58289 19.1655 8.62263 19.404 8.70211C20.0399 8.90082 20.5565 9.37773 20.8347 9.99373L24.9877 19.6113C25.1666 20.0087 25.0076 20.4857 24.6301 20.7042L24.5705 20.744C24.1929 20.9626 23.716 20.8831 23.4378 20.5453L16.8804 12.3584C16.4631 11.8417 16.2842 11.1661 16.4034 10.5104Z" fill="#FFD200"/>
<path d="M27.0346 1.48888L27.2134 1.44914C27.3922 1.4094 27.5711 1.38953 27.73 1.38953C28.207 1.38953 28.664 1.52863 29.0614 1.80682C29.5979 2.18437 29.9556 2.7805 30.0351 3.43625L31.7043 17.4453C31.7639 17.8825 31.4658 18.2998 31.0286 18.3992C30.5915 18.4985 30.1543 18.2601 30.0152 17.8428L25.3654 4.52916C25.1468 3.91315 25.2064 3.21766 25.5244 2.6414C25.8423 2.06514 26.3788 1.64785 27.0346 1.48888Z" fill="#FFD200"/>
<path d="M6.00981 13.0141C6.44697 12.5173 7.06297 12.2192 7.71872 12.2192C7.73859 12.2192 7.73859 12.2192 7.75846 12.2192C8.41421 12.2192 9.03021 12.4974 9.46737 12.9743L19.0452 23.3272C19.3433 23.6451 19.3632 24.1617 19.0651 24.4996C18.767 24.8374 18.2703 24.897 17.9126 24.6387L6.32775 16.5909C5.79123 16.2133 5.43355 15.6172 5.35406 14.9614C5.27458 14.3057 5.47329 13.65 5.91045 13.1532L6.00981 13.0141Z" fill="#FFD200"/>
<path d="M1.99729 25.99C1.69922 25.3938 1.67935 24.6785 1.95755 24.0625C2.21587 23.4465 2.73252 22.9695 3.36839 22.7708C3.60684 22.6914 3.8453 22.6516 4.08375 22.6516C4.50104 22.6516 4.89846 22.7708 5.27601 22.9695L14.2975 28.3149C14.675 28.5334 14.834 29.0104 14.6552 29.4078L14.6353 29.4674C14.4564 29.8648 14.0193 30.0834 13.602 29.9642L3.46775 27.222C2.812 27.0431 2.27548 26.606 1.99729 25.99Z" fill="#FFD200"/>
<path d="M43.9444 17.5646L48.0179 4.05225C48.2167 3.41638 48.6538 2.89973 49.2499 2.62153C49.5679 2.48244 49.9057 2.40295 50.2435 2.40295C50.5614 2.40295 50.8595 2.46257 51.1576 2.58179L51.3165 2.64141C51.9325 2.89973 52.3896 3.39651 52.6082 4.03238C52.8267 4.64838 52.7671 5.34387 52.4293 5.92013L45.5341 18.2203C45.3155 18.6177 44.8386 18.7767 44.4412 18.5979C44.0239 18.4588 43.8251 18.0017 43.9444 17.5646Z" fill="#FFD200"/>
<path d="M50.6413 21.1811L50.5817 21.1414C50.2439 20.8632 50.1842 20.3664 50.4227 20.0087L56.1853 11.2456C56.5628 10.6892 57.1391 10.3116 57.8147 10.2123C58.4705 10.1129 59.1461 10.3116 59.6627 10.7687C60.1595 11.2058 60.4576 11.8417 60.4576 12.5173C60.4576 13.1929 60.1794 13.8288 59.6627 14.266L51.7938 21.1811C51.456 21.4593 50.9791 21.4593 50.6413 21.1811Z" fill="#FFD200"/>
<path d="M40.7059 4.88679C41.1033 5.42331 41.2424 6.1188 41.1033 6.77455L38.7983 17.0081C38.6989 17.4254 38.3015 17.7235 37.8644 17.6838H37.7849C37.3477 17.644 37.0099 17.2863 36.99 16.8492L36.4932 6.37712C36.4535 5.70151 36.7118 5.06563 37.2086 4.58873C37.6458 4.17144 38.222 3.93298 38.8182 3.93298C38.8778 3.93298 38.9573 3.93298 39.0169 3.93298C39.6925 4.01247 40.3085 4.35028 40.7059 4.88679Z" fill="#FFD200"/>
<g opacity="0.8">
<path d="M75.878 45.5829H74.4473C74.7851 46.6361 75.0037 47.7886 75.0633 49.0603C75.1428 50.8487 74.9242 52.5378 74.3877 54.0877C74.4871 54.3063 74.6063 54.5249 74.7255 54.7633C76.4145 54.7434 77.885 54.4653 78.7593 54.2665C79.0574 54.1871 79.3555 54.1076 79.5939 53.9883C77.8254 51.5243 76.5338 48.6828 75.878 45.5829Z" fill="#D1C29C"/>
</g>
<g opacity="0.8">
<path d="M104.552 62.1353C102.386 62.8507 100.061 63.2282 97.6365 63.2282C94.8346 63.2282 92.152 62.7116 89.6682 61.7578C88.9329 62.7315 87.999 63.5263 87.0651 63.9833C86.5882 64.2218 85.992 64.4602 85.3164 64.659C87.9394 65.7916 90.8207 66.4275 93.861 66.4275C98.2525 66.4275 102.485 65.116 106.082 62.6321C106.479 62.3539 106.896 62.1353 107.334 61.9366C107.035 61.6783 106.062 61.6386 104.552 62.1353Z" fill="#D1C29C"/>
</g>
<path d="M93.8619 23.347C87.9006 23.347 82.4956 25.7713 78.6009 29.7058H78.581L78.3823 29.9045C75.7594 32.607 74.3883 35.6274 74.3684 35.6671C74.269 35.8857 74.0703 36.0447 73.8319 36.0645C73.7921 36.0645 70.3743 36.5216 67.2744 37.535C69.7186 38.8663 72.4011 40.9727 73.9113 44.2117H114.389H115.382C115.025 32.6467 105.526 23.347 93.8619 23.347Z" fill="#FFD200"/>
<path d="M63.9951 45.5033C65.4258 46.4571 66.2008 47.9673 66.2008 49.7358C66.2008 52.1402 68.6052 53.3921 69.3404 53.7299C70.3339 54.1671 71.705 54.5247 72.5595 54.644C72.5992 54.644 72.639 54.644 72.6589 54.6638C73.4338 52.9947 73.7915 51.1467 73.6922 49.1397C73.414 43.3771 69.4397 40.1778 66.161 38.5087C62.8426 36.8196 57.2389 36.0844 57.1793 36.0645C56.9408 36.0248 56.7421 35.8857 56.6428 35.6671C56.6229 35.6274 55.2518 32.607 52.6288 29.9045L52.4301 29.7058H52.4102C48.5155 25.7912 43.1106 23.347 37.1493 23.347C25.5048 23.347 15.9866 32.6467 15.6289 44.1918H16.6225H58.1132C60.8356 44.1918 62.6438 44.5892 63.9951 45.5033Z" fill="#FFD200"/>
<path d="M57.5168 56.1342C55.1919 56.2733 53.0657 55.8958 51.9132 55.6375C51.3369 55.4984 49.9261 55.0811 49.3498 54.1471C49.1114 53.7497 49.0518 53.3126 49.1511 52.8754C49.33 52.1799 49.4293 51.5639 49.4293 51.3254C49.4293 50.5703 48.8133 49.9543 48.0582 49.9543C47.4223 49.9543 46.866 50.4909 46.7269 50.8883C46.548 51.3255 46.4884 51.9613 46.4288 52.4581L46.389 52.7164C46.3493 53.0542 46.0711 53.3126 45.7333 53.3324C43.2693 53.4517 41.3418 55.4586 41.3418 57.9425C41.3418 60.0091 42.9911 61.9565 44.541 62.7513C47.9191 64.4602 56.4637 65.1358 63.8756 62.1154C60.9744 60.5059 58.8482 58.4989 57.5168 56.1342Z" fill="#FFD200"/>
<path d="M66.7767 61.9764C74.2681 65.1558 83.0313 64.4802 86.4491 62.7514C87.999 61.9764 89.6483 60.0291 89.6483 57.9426C89.6483 55.4786 87.7208 53.4517 85.2568 53.3325C84.919 53.3126 84.6408 53.0543 84.6011 52.7165L84.5613 52.4582C84.5017 51.9415 84.4222 51.3057 84.2633 50.8884C84.1043 50.4909 83.5678 49.9544 82.9319 49.9544C82.1768 49.9544 81.5608 50.5704 81.5608 51.3255C81.5608 51.564 81.68 52.1601 81.839 52.8755C81.9582 53.3126 81.8787 53.7498 81.6403 54.1472C81.064 55.0812 79.6532 55.4985 79.0769 55.6375C77.7456 55.9555 75.1226 56.4125 72.3605 56.0151C71.4464 55.8959 69.9164 55.5183 68.7638 55.0017C66.28 53.8889 64.8095 51.9217 64.8095 49.7358C64.8095 48.9807 64.6108 47.5898 63.2198 46.6558C62.1269 45.9206 60.5571 45.6027 58.1129 45.6027H58.0335C57.636 46.6558 57.3777 47.8481 57.3181 49.1596C57.0399 54.7831 60.3186 59.2342 66.7767 61.9764Z" fill="#FFD200"/>
<path d="M93.8622 40.4363C85.3177 40.4363 80.8467 35.1903 80.8467 30.004C80.8467 29.6264 81.1646 29.3085 81.5422 29.3085C81.9197 29.3085 82.2377 29.6264 82.2377 30.004C82.2377 34.4948 86.2317 39.0453 93.8622 39.0453C101.493 39.0453 105.487 34.4948 105.487 30.004C105.487 29.6264 105.805 29.3085 106.182 29.3085C106.56 29.3085 106.878 29.6264 106.878 30.004C106.878 35.1903 102.407 40.4363 93.8622 40.4363Z" fill="#2C2A29"/>
<path d="M95.3521 29.8254C95.3123 29.8254 95.2726 29.8254 95.213 29.8055C94.8354 29.726 94.597 29.3683 94.6566 28.9908C94.9546 27.4607 95.9482 25.9108 97.518 25.9108C99.2269 25.9108 100.121 27.5799 100.379 28.9908C100.439 29.3683 100.181 29.726 99.8032 29.7856C99.4256 29.8452 99.0679 29.5869 99.0083 29.2094C98.9885 29.1299 98.6705 27.2819 97.518 27.2819C96.6238 27.2819 96.1668 28.5536 96.0277 29.2292C95.9879 29.5869 95.6899 29.8254 95.3521 29.8254Z" fill="#2C2A29"/>
<path d="M92.369 29.8253C92.0311 29.8253 91.7529 29.5868 91.6933 29.249C91.5741 28.5734 91.0972 27.3016 90.203 27.3016C89.0703 27.3016 88.7325 29.1497 88.7127 29.2291C88.6531 29.6067 88.2954 29.865 87.9178 29.8054C87.5403 29.7458 87.2819 29.3881 87.3416 29.0106C87.58 27.5798 88.4742 25.9305 90.203 25.9305C91.7728 25.9305 92.7664 27.4805 93.0644 29.0106C93.1439 29.3881 92.8856 29.7458 92.508 29.8253C92.4683 29.8253 92.4087 29.8253 92.369 29.8253Z" fill="#2C2A29"/>
<path d="M37.1298 40.4361C45.6744 40.4361 50.1454 35.1902 50.1454 30.0038C50.1454 29.6263 49.8274 29.3083 49.4499 29.3083C49.0723 29.3083 48.7544 29.6263 48.7544 30.0038C48.7544 34.4947 44.7603 39.0452 37.1298 39.0452C29.4993 39.0452 25.5052 34.4947 25.5052 30.0038C25.5052 29.6263 25.1873 29.3083 24.8097 29.3083C24.4322 29.3083 24.1143 29.6263 24.1143 30.0038C24.1341 35.1902 28.6051 40.4361 37.1298 40.4361Z" fill="#2C2A29"/>
<path d="M35.6404 29.8254C35.6802 29.8254 35.7199 29.8254 35.7795 29.8055C36.1571 29.726 36.3955 29.3683 36.3359 28.9908C36.0378 27.4607 35.0443 25.9108 33.4745 25.9108C31.7656 25.9108 30.8714 27.5799 30.613 28.9908C30.5534 29.3683 30.8118 29.726 31.1893 29.7856C31.5669 29.8452 31.9245 29.5869 31.9841 29.2094C32.004 29.1299 32.322 27.2819 33.4745 27.2819C34.3687 27.2819 34.8257 28.5536 34.9648 29.2292C35.0244 29.5869 35.3225 29.8254 35.6404 29.8254Z" fill="#2C2A29"/>
<path d="M38.6191 29.825C38.937 29.825 39.2351 29.5866 39.2947 29.2488C39.4139 28.5732 39.8908 27.3014 40.785 27.3014C41.9177 27.3014 42.2555 29.1494 42.2753 29.2289C42.335 29.6064 42.6926 29.8648 43.0702 29.8052C43.4477 29.7455 43.7061 29.3879 43.6465 29.0103C43.408 27.5796 42.5138 25.9303 40.785 25.9303C39.2152 25.9303 38.2217 27.4802 37.9236 29.0103C37.8441 29.3879 38.1024 29.7455 38.48 29.825C38.5396 29.825 38.5793 29.825 38.6191 29.825Z" fill="#2C2A29"/>
<path d="M15.6084 44.1917H16.602H18.907C18.748 43.1385 18.6487 42.0655 18.6487 40.9726C18.6487 37.0183 19.7018 33.3024 21.5101 30.0833C18.0128 33.7991 15.7872 38.7272 15.6084 44.1917Z" fill="#FFAC00"/>
</g>
<defs>
<clipPath id="clip0_1782_15049">
<rect width="131" height="70" fill="white"/>
</clipPath>
</defs>
</svg>
