<svg xmlns:xlink="http://www.w3.org/1999/xlink" width="48" height="45" viewBox="0 0 48 45" fill="none" xmlns="http://www.w3.org/2000/svg">
<rect width="47" height="45" transform="translate(0.782227)" fill="none"></rect>
<path d="M11.2068 42.0061C14.0817 41.7769 17.8954 41.6555 21.9438 41.6555C25.9923 41.6555 29.806 41.7769 32.6809 42.0061C37.2134 42.3703 37.5801 42.8018 37.5801 43.3278C37.5801 43.8537 37.2134 44.2852 32.6809 44.6494C29.806 44.8786 25.9923 45 21.9438 45C17.8954 45 14.0817 44.8786 11.2068 44.6494C6.67432 44.2852 6.30762 43.8537 6.30762 43.3278C6.30762 42.8018 6.67432 42.3703 11.2068 42.0061Z" fill="#2C2A29"></path>
<path d="M15.0066 42.0061C17.8815 41.7769 21.6952 41.6555 25.7437 41.6555C29.7921 41.6555 33.6058 41.7769 36.4807 42.0061C41.0132 42.3703 41.3799 42.8018 41.3799 43.3278C41.3799 43.8537 41.0132 44.2852 36.4807 44.6494C33.6058 44.8786 29.7921 45 25.7437 45C21.6952 45 17.8815 44.8786 15.0066 44.6494C10.4741 44.2852 10.1074 43.8537 10.1074 43.3278C10.1074 42.8018 10.4741 42.3703 15.0066 42.0061Z" fill="#2C2A29"></path>
<path d="M12.7568 11.75H36.2955C36.3916 11.75 36.4792 11.8051 36.5208 11.8917L38.0101 14.9898C38.0899 15.1558 37.9689 15.3481 37.7848 15.3481H11.2959C11.1126 15.3481 10.9916 15.1573 11.0698 14.9915L12.5307 11.8934C12.5719 11.8058 12.66 11.75 12.7568 11.75Z" fill="#BF7300" stroke="#2C2A29" stroke-width="1.5px"></path>
<mask id="path-4-inside-1_3225_25326" fill="#FFFFFF">
<rect x="10.1074" y="14.4967" width="28.831" height="28.831" rx="1" fill="#FFFFFF"></rect>
</mask>
<rect x="10.1074" y="14.4967" width="28.831" height="28.831" rx="1" fill="#BF7300" stroke="#2C2A29" stroke-width="3px" mask="url(#path-4-inside-1_3225_25326)"></rect>
<path opacity="0.21" d="M37.7156 41.8642C29.3382 38.3369 16.772 23.4927 11.5361 16.5115V41.8642H37.7156Z" fill="#2C2A29"></path>
</svg>