<svg xmlns:xlink="http://www.w3.org/1999/xlink" class="" width="17" height="17" viewBox="0 0 17 17" fill="none" xmlns="http://www.w3.org/2000/svg">
  <path d="M8.2018 15.699C12.1285 15.699 15.3118 12.5157 15.3118 8.589C15.3118 4.66226 12.1285 1.479 8.2018 1.479C4.27506 1.479 1.0918 4.66226 1.0918 8.589C1.0918 12.5157 4.27506 15.699 8.2018 15.699Z" stroke="#000000" stroke-width="2px" stroke-linejoin="round" fill="none"></path>
  <path d="M11.0866 6.34472C11.0866 5.21022 10.0261 4.55664 8.28735 4.55664C7.25149 4.55664 6.30196 4.66763 5.31543 4.88959V7.35591C5.72237 7.24493 6.12932 7.17094 6.4746 7.17094C6.93087 7.17094 7.25149 7.29426 7.25149 7.61488C7.25149 8.36711 6.38828 8.65073 6.44994 9.5756L6.49926 10.2538C6.99253 10.0195 7.46113 9.92089 8.04071 9.92089C8.6203 9.92089 9.0889 10.0195 9.58216 10.2538L9.63149 9.63726C9.75481 8.03415 11.0866 8.09581 11.0866 6.34472ZM8.04071 12.6215C9.24921 12.6215 9.87812 12.2269 9.87812 11.4747C9.87812 10.7224 9.24921 10.3278 8.04071 10.3278C6.83222 10.3278 6.20331 10.7224 6.20331 11.4747C6.20331 12.2269 6.83222 12.6215 8.04071 12.6215Z" fill="black"></path>
</svg>