<svg xmlns:xlink="http://www.w3.org/1999/xlink" width="24" height="23" viewBox="0 0 24 23" fill="none" xmlns="http://www.w3.org/2000/svg"> <path d="M17.7253 12.5999L22.4099 4.09287L4.53711 3.05127L6.61953 12.5999H17.7253Z" fill="#E93BB7"></path> <ellipse cx="17.9839" cy="19.5291" rx="1.80608" ry="1.80697" fill="#E93BB7"></ellipse> <ellipse cx="6.12871" cy="19.5291" rx="1.80608" ry="1.80697" fill="#E93BB7"></ellipse> <path d="M1.78748 1.14258H4.08489L4.54438 3.44113M4.54438 3.44113H22.4642L17.8694 12.6354H6.38231M4.54438 3.44113L6.38231 12.6354M6.38231 12.6354L3.74832 15.2707C3.02463 15.9947 3.53696 17.2325 4.56046 17.2325H17.8694M17.8694 17.2325C17.2601 17.2325 16.6757 17.4746 16.2449 17.9057C15.814 18.3368 15.572 18.9214 15.572 19.531C15.572 20.1406 15.814 20.7253 16.2449 21.1564C16.6757 21.5874 17.2601 21.8296 17.8694 21.8296C18.4787 21.8296 19.0631 21.5874 19.4939 21.1564C19.9248 20.7253 20.1668 20.1406 20.1668 19.531C20.1668 18.9214 19.9248 18.3368 19.4939 17.9057C19.0631 17.4746 18.4787 17.2325 17.8694 17.2325ZM8.67973 19.531C8.67973 20.1406 8.43768 20.7253 8.00683 21.1564C7.57598 21.5874 6.99162 21.8296 6.38231 21.8296C5.773 21.8296 5.18864 21.5874 4.75779 21.1564C4.32694 20.7253 4.08489 20.1406 4.08489 19.531C4.08489 18.9214 4.32694 18.3368 4.75779 17.9057C5.18864 17.4746 5.773 17.2325 6.38231 17.2325C6.99162 17.2325 7.57598 17.4746 8.00683 17.9057C8.43768 18.3368 8.67973 18.9214 8.67973 19.531Z" stroke="#2C2A29" stroke-width="2px" stroke-linecap="round" stroke-linejoin="round" fill="none"></path> </svg>